<svg width="20" height="21" viewBox="0 0 20 21" fill="none" xmlns="http://www.w3.org/2000/svg">
<path d="M11.3338 18.5531L15.884 15.9261C16.3698 15.6456 16.6122 15.5054 16.7888 15.3092C16.9451 15.1356 17.0632 14.9312 17.1354 14.7091C17.2168 14.4586 17.2168 14.1787 17.2168 13.6204V8.35864C17.2168 7.80039 17.2168 7.52053 17.1354 7.27006C17.0632 7.04793 16.9451 6.84331 16.7888 6.66974C16.6129 6.47442 16.3711 6.33479 15.8895 6.05677L11.333 3.42607C10.8473 3.14563 10.6049 3.00569 10.3467 2.95081C10.1182 2.90225 9.88202 2.90225 9.65356 2.95081C9.39536 3.00569 9.15216 3.14563 8.66642 3.42607L4.11536 6.05363C3.63019 6.33374 3.38779 6.47369 3.21126 6.66974C3.05498 6.84331 2.93695 7.04793 2.86478 7.27006C2.7832 7.52112 2.7832 7.80171 2.7832 8.36259V13.6167C2.7832 14.1776 2.7832 14.458 2.86478 14.7091C2.93695 14.9312 3.05498 15.1356 3.21126 15.3092C3.3879 15.5054 3.63047 15.6456 4.11621 15.9261L8.66642 18.5531C9.15215 18.8336 9.39536 18.9736 9.65356 19.0285C9.88202 19.077 10.1182 19.077 10.3467 19.0285C10.6049 18.9736 10.8481 18.8336 11.3338 18.5531Z" stroke="#6B788E" stroke-width="1.2" stroke-linecap="round" stroke-linejoin="round"/>
<path d="M7.5 10.9895C7.5 12.3703 8.61929 13.4895 10 13.4895C11.3807 13.4895 12.5 12.3703 12.5 10.9895C12.5 9.60883 11.3807 8.48954 10 8.48954C8.61929 8.48954 7.5 9.60883 7.5 10.9895Z" stroke="#6B788E" stroke-width="1.2" stroke-linecap="round" stroke-linejoin="round"/>
</svg>
